<svg width="1100" height="200" xmlns="http://www.w3.org/2000/svg" xmlns:xlink="http://www.w3.org/1999/xlink">
   
  <svg x="20" class="icon" viewBox="0 0 1024 1024" version="1.1" width="200" height="200" >
    <path d="M918.538206 1024H102.059801c-56.13289 0-102.059801-45.92691-102.059801-102.059801V105.461794C0 49.328904 45.92691 3.401993 102.059801 3.401993h476.279069c18.710963 0 34.019934 15.30897 34.019934 34.019934s-15.30897 34.019934-34.019934 34.019933H102.059801c-18.710963 0-34.019934 15.30897-34.019934 34.019934v816.478405c0 18.710963 15.30897 34.019934 34.019934 34.019934h816.478405c18.710963 0 34.019934-15.30897 34.019934-34.019934V445.66113c0-18.710963 15.30897-34.019934 34.019933-34.019934s34.019934 15.30897 34.019934 34.019934v476.279069c0 56.13289-45.92691 102.059801-102.059801 102.059801z" fill="#1296db" p-id="9512"></path>
    <path d="M729.387375 23.473754L255.489701 497.371429 120.770764 872.611296l377.621263-132.337542 265.355481-265.355482c22.793355-22.793355 34.360133-22.112957 54.772093-1.700996l18.030565 18.030565 47.968106-47.968107-44.225913-44.906312c-26.535548-26.535548-69.740864-26.535548-96.276412 0l-232.696346 232.696345-146.625913-146.625913L749.459136 99.678405c25.51495-25.51495 38.102326-18.370764 54.772093-1.700996l120.430565 120.430564-52.050498 52.050499-96.276412-96.276412c-13.267774-13.267774-35.040532-13.267774-48.308306 0-13.267774 13.267774-13.267774 35.040532 0 48.308305l144.244518 144.244519L1020.598007 218.067774 825.663787 23.473754c-26.535548-26.875748-69.400664-26.875748-96.276412 0z m-266.03588 655.904319l-243.582724 95.255814L316.385382 532.752159l0.340199-0.340199 146.625914 146.966113z" fill="#1296db" p-id="9513"></path>
  </svg>
   
  <text x="280" y="130" font-family="Verdana" font-size="100" fill="#1296db" font-weight="600">Resume Show</text>
</svg>
